<?xml version="1.0" encoding="UTF-8"?>
<svg id="doc" xmlns="http://www.w3.org/2000/svg" viewBox="0 0 588.56 588.56">
  <defs>
    <style>
      .cls-1 {
        fill: #fbca9b;
      }
    </style>
  </defs>
  <polygon class="cls-1" points="454.79 342.5 454.79 382.06 496.57 382.06 454.79 342.5"/>
  <path class="cls-1" d="m456.79,393.61c-7.24,0-13.11-5.87-13.11-13.11v-39.78h-66.89c-8.47,0-15.33,6.86-15.33,15.33v148.44c0,8.47,6.86,15.33,15.33,15.33h108.44c8.47,0,15.33-6.86,15.33-15.33v-110.89h-43.78Zm-66.57,15.56h78.39c3.39,0,6.14,2.75,6.14,6.14s-2.75,6.14-6.14,6.14h-78.39c-3.39,0-6.14-2.75-6.14-6.14s2.75-6.14,6.14-6.14Zm25.94,69.78h-24.83c-3.39,0-6.14-2.75-6.14-6.14s2.75-6.14,6.14-6.14h24.83c3.39,0,6.14,2.75,6.14,6.14s-2.75,6.14-6.14,6.14Zm52.44-28.75h-78.39c-3.39,0-6.14-2.75-6.14-6.14s2.75-6.14,6.14-6.14h78.39c3.39,0,6.14,2.75,6.14,6.14s-2.75,6.14-6.14,6.14Z"/>
</svg>