<?xml version="1.0" encoding="UTF-8"?>
<svg id="Calque_1" data-name="Calque 1" xmlns="http://www.w3.org/2000/svg" viewBox="0 0 126.51 126.51">
  <defs>
    <style>
      .cls-1 {
        fill: #fbcb9b;
      }

      .cls-2 {
        fill: none;
      }
    </style>
  </defs>
  <path class="cls-1" d="m126.51,63.25C126.51,28.32,98.19,0,63.25,0S0,28.32,0,63.25c0,30.5,21.59,55.96,50.33,61.93l-.37-18.27c-1.16.04-2.8.02-4.75-.28-2.11-.33-3.93-.61-5.87-1.82-1.74-1.09-2.78-2.42-3.49-3.35-.72-.94-2.09-2.57-3.07-5.03-.9-2.26-.43-2.51-1.15-4.19-1.59-3.68-4.95-5.05-4.72-5.45.23-.4,3.59.72,7.07,2.97,3.59,2.33,6.04,5.05,7.61,7.13.97.75,3.17,2.32,5.67,2.9,1.57.36,2.37.13,2.86-.14.48-.25.79-.6.98-.84-.16-1.46-.12-3.48.98-5.31,1.26-2.1,3.06-2.54,2.94-3.35-.21-1.44-5.98-.84-10.76-2.24-8.81-2.57-13.29-11.62-13.98-13.02-4.55-9.2-2.99-20.85,3.78-30.03,0,0-.84-11.74,2.52-14.67,0,0,7.55-.42,13.84,6.29,0,0,19.7-4.61,26.83.42,0,0,8.8-8.81,17.19-6.71,0,0,2.93,10.49,0,16.36,2.02,3.23,4.82,8.82,5.17,16.07.11,2.19.24,5.82-1.26,10.2-.64,1.88-2.5,7.09-7.27,10.76-7.03,5.42-16.24,4.28-16.35,6.57-.03.65.71.82,1.68,2.2,1.58,2.24,1.76,4.81,1.68,6.6l.75,25.63c27.42-6.93,47.71-31.75,47.71-61.32Z"/>
  <path class="cls-2" d="m76.37,92.34c-.97-1.38-1.71-1.55-1.68-2.2.12-2.28,9.32-1.15,16.35-6.57,4.76-3.67,6.62-8.88,7.27-10.76,1.5-4.38,1.36-8.02,1.26-10.2-.35-7.25-3.15-12.84-5.17-16.07,2.93-5.87,0-16.36,0-16.36-8.39-2.1-17.19,6.71-17.19,6.71-7.13-5.03-26.83-.42-26.83-.42-6.29-6.71-13.84-6.29-13.84-6.29-3.35,2.93-2.52,14.67-2.52,14.67-6.77,9.18-8.33,20.83-3.78,30.03.69,1.39,5.17,10.45,13.98,13.02,4.78,1.39,10.55.8,10.76,2.24.12.81-1.68,1.25-2.94,3.35-1.09,1.83-1.13,3.85-.98,5.31-.19.24-.5.58-.98.84-.49.26-1.29.5-2.86.14-2.49-.58-4.7-2.15-5.67-2.9-1.57-2.08-4.01-4.8-7.61-7.13-3.48-2.25-6.83-3.37-7.07-2.97-.24.4,3.13,1.77,4.72,5.45.72,1.68.25,1.93,1.15,4.19.98,2.46,2.36,4.09,3.07,5.03.72.94,1.75,2.27,3.49,3.35,1.94,1.21,3.76,1.49,5.87,1.82,1.95.3,3.59.32,4.75.28l.37,18.27c4.17.87,8.5,1.33,12.93,1.33,5.36,0,10.57-.67,15.54-1.93l-.75-25.63c.09-1.79-.09-4.36-1.68-6.6Z"/>
</svg>