<?xml version="1.0" encoding="UTF-8"?>
<svg id="arret" xmlns="http://www.w3.org/2000/svg" viewBox="0 0 588.56 588.56">
  <defs>
    <style>
      .cls-1 {
        fill: #fbca9b;
      }
    </style>
  </defs>
  <rect class="cls-1" x="150.75" y="302.94" width="22.78" height="86.33" rx="11.39" ry="11.39"/>
  <path class="cls-1" d="m194.86,331.39v31.11c16.06,17.41,19.86,42.13,9.78,61.33-7.34,13.99-22.96,26.78-42.78,26.67-27.77-.16-41.63-25.54-42.22-26.67-10.05-19.19-6.25-43.88,9.78-61.33v-31.11c-26.73,15.27-43.16,43.01-42.22,72.11.13,4.03,1.86,39.02,31.56,59.44,17.68,12.16,36.04,12.81,43.39,12.67,7.35.14,25.71-.51,43.39-12.67,29.7-20.43,31.43-55.41,31.56-59.44.94-29.1-15.49-56.84-42.22-72.11Z"/>
</svg>